<svg xmlns="http://www.w3.org/2000/svg" xmlns:xlink="http://www.w3.org/1999/xlink" width="56" zoomAndPan="magnify" viewBox="0 0 420 419.999985" height="56" preserveAspectRatio="xMidYMid meet" version="1.0"><defs><clipPath id="381289865e"><path d="M 4.5 3 L 214.5 3 L 214.5 213 L 4.5 213 Z M 4.5 3 " clip-rule="nonzero" /></clipPath><clipPath id="f100c9a396"><path d="M 4.5 207 L 214.5 207 L 214.5 417 L 4.5 417 Z M 4.5 207 " clip-rule="nonzero" /></clipPath><clipPath id="6e775cf639"><path d="M 205.5 3 L 415.5 3 L 415.5 213 L 205.5 213 Z M 205.5 3 " clip-rule="nonzero" /></clipPath><clipPath id="6d9bcb56c7"><path d="M 205.5 207 L 415.5 207 L 415.5 417 L 205.5 417 Z M 205.5 207 " clip-rule="nonzero" /></clipPath><clipPath id="cc57102263"><path d="M 55.304688 55.480469 L 178.046875 55.480469 L 178.046875 178.480469 L 55.304688 178.480469 Z M 55.304688 55.480469 " clip-rule="nonzero" /></clipPath><clipPath id="04d73a3b3a"><path d="M 55.304688 232.71875 L 178.304688 232.71875 L 178.304688 355.71875 L 55.304688 355.71875 Z M 55.304688 232.71875 " clip-rule="nonzero" /></clipPath><clipPath id="ff83501b62"><path d="M 232.941406 241.765625 L 355.941406 241.765625 L 355.941406 364.507812 L 232.941406 364.507812 Z M 232.941406 241.765625 " clip-rule="nonzero" /></clipPath><clipPath id="52ca3897b2"><path d="M 234.441406 58.527344 L 357.183594 58.527344 L 357.183594 181.269531 L 234.441406 181.269531 Z M 234.441406 58.527344 " clip-rule="nonzero" /></clipPath></defs><g clip-path="url(#381289865e)"><path fill="#94b4c1" d="M 109.5 213 C 137.546875 213 163.914062 202.078125 183.746094 182.246094 C 203.578125 162.414062 214.5 136.046875 214.5 108 C 214.5 79.953125 203.578125 53.585938 183.746094 33.753906 C 163.914062 13.921875 137.546875 3 109.5 3 C 81.453125 3 55.085938 13.921875 35.253906 33.753906 C 15.421875 53.585938 4.5 79.953125 4.5 108 C 4.5 123.621094 8.878906 138.109375 9.082031 138.765625 C 10.832031 144.488281 13.085938 150.09375 15.789062 155.441406 L 5.5 207.464844 C 5.296875 208.492188 5.613281 209.550781 6.34375 210.296875 C 7.074219 211.046875 8.128906 211.382812 9.160156 211.203125 L 62.4375 201.867188 C 68.074219 204.703125 73.988281 207.035156 80.035156 208.804688 C 80.628906 208.976562 94.613281 213 109.5 213 Z M 109.5 213 " fill-opacity="1" fill-rule="nonzero" /></g><g clip-path="url(#f100c9a396)"><path fill="#94b4c1" d="M 109.5 417 C 81.453125 417 55.085938 406.078125 35.253906 386.246094 C 15.421875 366.414062 4.5 340.046875 4.5 312 C 4.5 283.953125 15.421875 257.585938 35.253906 237.753906 C 55.085938 217.921875 81.453125 207 109.5 207 C 137.546875 207 163.914062 217.921875 183.746094 237.753906 C 203.578125 257.585938 214.5 283.953125 214.5 312 C 214.5 327.621094 210.121094 342.105469 209.917969 342.765625 C 208.167969 348.488281 205.914062 354.09375 203.210938 359.441406 L 213.5 411.464844 C 213.703125 412.492188 213.386719 413.550781 212.65625 414.296875 C 211.925781 415.046875 210.871094 415.382812 209.839844 415.203125 L 156.5625 405.867188 C 150.925781 408.703125 145.011719 411.035156 138.964844 412.804688 C 138.371094 412.976562 124.386719 417 109.5 417 Z M 109.5 417 " fill-opacity="1" fill-rule="nonzero" /></g><g clip-path="url(#6e775cf639)"><path fill="#94b4c1" d="M 310.5 3 C 338.546875 3 364.914062 13.921875 384.746094 33.753906 C 404.578125 53.585938 415.5 79.953125 415.5 108 C 415.5 136.046875 404.578125 162.414062 384.746094 182.246094 C 364.914062 202.078125 338.546875 213 310.5 213 C 282.453125 213 256.085938 202.078125 236.253906 182.246094 C 216.421875 162.414062 205.5 136.046875 205.5 108 C 205.5 92.378906 209.878906 77.890625 210.082031 77.234375 C 211.832031 71.511719 214.085938 65.90625 216.789062 60.558594 L 206.5 8.535156 C 206.296875 7.507812 206.613281 6.449219 207.34375 5.703125 C 208.074219 4.953125 209.128906 4.617188 210.160156 4.796875 L 263.4375 14.132812 C 269.074219 11.296875 274.988281 8.964844 281.035156 7.195312 C 281.628906 7.023438 295.613281 3 310.5 3 Z M 310.5 3 " fill-opacity="1" fill-rule="nonzero" /></g><g clip-path="url(#6d9bcb56c7)"><path fill="#94b4c1" d="M 310.5 207 C 282.453125 207 256.085938 217.921875 236.253906 237.753906 C 216.421875 257.585938 205.5 283.953125 205.5 312 C 205.5 340.046875 216.421875 366.414062 236.253906 386.246094 C 256.085938 406.078125 282.453125 417 310.5 417 C 338.546875 417 364.914062 406.078125 384.746094 386.246094 C 404.578125 366.414062 415.5 340.046875 415.5 312 C 415.5 296.378906 411.121094 281.890625 410.917969 281.234375 C 409.167969 275.511719 406.914062 269.90625 404.210938 264.558594 L 414.5 212.535156 C 414.703125 211.507812 414.386719 210.449219 413.65625 209.703125 C 412.925781 208.953125 411.871094 208.617188 410.839844 208.796875 L 357.5625 218.132812 C 351.925781 215.296875 346.011719 212.964844 339.964844 211.195312 C 339.371094 211.023438 325.386719 207 310.5 207 Z M 310.5 207 " fill-opacity="1" fill-rule="nonzero" /></g><g clip-path="url(#cc57102263)"><path fill="#ecefca" d="M 116.675781 178.222656 C 133.070312 178.222656 148.480469 171.839844 160.074219 160.246094 C 171.664062 148.65625 178.046875 133.242188 178.046875 116.851562 C 178.046875 100.457031 171.664062 85.046875 160.074219 73.457031 C 148.480469 61.863281 133.070312 55.480469 116.675781 55.480469 C 100.285156 55.480469 84.875 61.863281 73.28125 73.457031 C 61.691406 85.046875 55.308594 100.457031 55.308594 116.851562 C 55.308594 125.980469 57.867188 134.449219 57.984375 134.832031 C 59.007812 138.179688 60.324219 141.453125 61.90625 144.582031 L 55.890625 174.988281 C 55.773438 175.585938 55.957031 176.207031 56.382812 176.644531 C 56.8125 177.082031 57.425781 177.277344 58.03125 177.171875 L 89.167969 171.714844 C 92.464844 173.371094 95.921875 174.734375 99.453125 175.769531 C 99.800781 175.871094 107.976562 178.222656 116.675781 178.222656 Z M 116.675781 178.222656 " fill-opacity="1" fill-rule="nonzero" /></g><g clip-path="url(#04d73a3b3a)"><path fill="#ecefca" d="M 116.675781 355.460938 C 100.285156 355.460938 84.871094 349.078125 73.28125 337.484375 C 61.691406 325.894531 55.304688 310.484375 55.304688 294.089844 C 55.304688 277.699219 61.691406 262.285156 73.28125 250.695312 C 84.871094 239.101562 100.285156 232.71875 116.675781 232.71875 C 133.070312 232.71875 148.480469 239.101562 160.074219 250.695312 C 171.664062 262.285156 178.046875 277.699219 178.046875 294.089844 C 178.046875 303.21875 175.488281 311.6875 175.371094 312.074219 C 174.347656 315.417969 173.03125 318.691406 171.449219 321.820312 L 177.464844 352.226562 C 177.582031 352.824219 177.398438 353.445312 176.96875 353.882812 C 176.542969 354.320312 175.925781 354.515625 175.324219 354.414062 L 144.183594 348.953125 C 140.890625 350.613281 137.433594 351.976562 133.898438 353.007812 C 133.554688 353.109375 125.378906 355.460938 116.675781 355.460938 Z M 116.675781 355.460938 " fill-opacity="1" fill-rule="nonzero" /></g><g clip-path="url(#ff83501b62)"><path fill="#ecefca" d="M 294.3125 241.769531 C 277.917969 241.769531 262.507812 248.152344 250.917969 259.742188 C 239.324219 271.335938 232.941406 286.746094 232.941406 303.140625 C 232.941406 319.53125 239.324219 334.941406 250.917969 346.535156 C 262.507812 358.125 277.917969 364.507812 294.3125 364.507812 C 310.707031 364.507812 326.117188 358.125 337.707031 346.535156 C 349.300781 334.941406 355.683594 319.53125 355.683594 303.140625 C 355.683594 294.007812 353.125 285.542969 353.003906 285.15625 C 351.984375 281.8125 350.667969 278.535156 349.085938 275.410156 L 355.097656 245.003906 C 355.21875 244.402344 355.035156 243.785156 354.605469 243.347656 C 354.179688 242.910156 353.5625 242.710938 352.960938 242.816406 L 321.820312 248.273438 C 318.527344 246.617188 315.070312 245.253906 311.535156 244.21875 C 311.1875 244.121094 303.011719 241.769531 294.3125 241.769531 Z M 294.3125 241.769531 " fill-opacity="1" fill-rule="nonzero" /></g><g clip-path="url(#52ca3897b2)"><path fill="#ecefca" d="M 295.8125 58.527344 C 312.207031 58.527344 327.617188 64.914062 339.207031 76.503906 C 350.800781 88.09375 357.183594 103.507812 357.183594 119.898438 C 357.183594 136.292969 350.800781 151.703125 339.207031 163.296875 C 327.617188 174.886719 312.207031 181.269531 295.8125 181.269531 C 279.421875 181.269531 264.007812 174.886719 252.417969 163.296875 C 240.824219 151.703125 234.441406 136.292969 234.441406 119.898438 C 234.441406 110.769531 237.003906 102.300781 237.121094 101.917969 C 238.140625 98.574219 239.460938 95.296875 241.039062 92.171875 L 235.027344 61.765625 C 234.90625 61.164062 235.09375 60.542969 235.519531 60.109375 C 235.949219 59.671875 236.5625 59.472656 237.164062 59.578125 L 268.304688 65.035156 C 271.597656 63.378906 275.054688 62.015625 278.589844 60.980469 C 278.9375 60.878906 287.113281 58.527344 295.8125 58.527344 Z M 295.8125 58.527344 " fill-opacity="1" fill-rule="nonzero" /></g></svg>